<?xml version="1.0" encoding="UTF-8"?>
<svg id="Layer_1" xmlns="http://www.w3.org/2000/svg" version="1.1" viewBox="0 0 180 180">
  <!-- Generator: Adobe Illustrator 30.0.0, SVG Export Plug-In . SVG Version: 2.1.1 Build 123)  -->
  <defs>
    <style>
      .st0 {
        stroke: #fff;
        stroke-miterlimit: 10;
        stroke-width: 8px;
      }

      .st0, .st1 {
        fill: none;
      }

      .st2 {
        opacity: .3;
      }
    </style>
  </defs>
  <g class="st2">
    <path class="st1" d="M147.6,63.1c-2,0-4,.2-5.9.7-6.4-9.9-17.5-16.5-30.2-16.5s-27.5,9-33,21.9c6.7,2.8,12.3,7.6,16.2,13.7,1.9-.4,3.8-.7,5.9-.7,14,0,25.3,11.3,25.3,25.4s-.3,4.3-.8,6.3h22.5c14,0,25.4-11.3,25.4-25.3s-11.4-25.4-25.4-25.4h0Z"/>
    <path class="st1" d="M100.6,82.1c-2,0-4,.2-5.9.7-6.4-9.9-17.5-16.5-30.2-16.5s-30.4,11.2-34.6,26.3c-.9,0-1.8-.2-2.8-.2-11.1,0-20.2,9-20.2,20.2s9,20.2,20.2,20.2h73.4c14,0,25.4-11.3,25.4-25.4s-11.3-25.4-25.4-25.4h0Z"/>
  </g>
  <g>
    <path class="st0" d="M147.6,63.1c-2,0-4,.2-5.9.7-6.4-9.9-17.5-16.5-30.2-16.5s-27.5,9-33,21.9c6.7,2.8,12.3,7.6,16.2,13.7,1.9-.4,3.8-.7,5.9-.7,14,0,25.3,11.3,25.3,25.4s-.3,4.3-.8,6.3h22.5c14,0,25.4-11.3,25.4-25.3s-11.4-25.4-25.4-25.4h0Z"/>
    <path class="st0" d="M100.6,82.1c-2,0-4,.2-5.9.7-6.4-9.9-17.5-16.5-30.2-16.5s-30.4,11.2-34.6,26.3c-.9,0-1.8-.2-2.8-.2-11.1,0-20.2,9-20.2,20.2s9,20.2,20.2,20.2h73.4c14,0,25.4-11.3,25.4-25.4s-11.3-25.4-25.4-25.4h0Z"/>
  </g>
</svg>
