<?xml version="1.0" encoding="UTF-8"?>
<svg id="Layer_1" xmlns="http://www.w3.org/2000/svg" version="1.1" xmlns:xlink="http://www.w3.org/1999/xlink" viewBox="0 0 377.6 132.3">
  <!-- Generator: Adobe Illustrator 29.8.2, SVG Export Plug-In . SVG Version: 2.1.1 Build 3)  -->
  <defs>
    <style>
      .st0 {
        fill: #fff;
      }

      .st1 {
        fill: none;
      }

      .st2 {
        clip-path: url(#clippath);
      }
    </style>
    <clipPath id="clippath">
      <rect class="st1" width="377.6" height="132.3"/>
    </clipPath>
  </defs>
  <path class="st0" d="M186.9,29c0-8.1-5.8-13.1-13.2-13.1s-13.2,5-13.2,13.1,5.6,13.1,13.1,13.1,13.4-5,13.4-13.1M168.3,29c0-4.3,2.6-6.3,5.3-6.3s5.3,2,5.3,6.3-2.6,6.3-5.4,6.3-5.2-2-5.2-6.3"/>
  <path class="st0" d="M157.7,33c0-3.7-2.5-7-6.2-7.7,3.3-.9,5.6-3.9,5.4-7.3,0-5.1-3.9-8.3-10.4-8.3h-14.4v32h14.9c6.7,0,10.6-3.4,10.6-8.7M140,15.9h5.1c2.6,0,4,1.1,4,3.4s-1.4,3.4-4,3.4h-5.1v-6.8h0ZM140,35.4v-7.1h5.6c2.6,0,4.2,1.3,4.2,3.6s-1.5,3.5-4.1,3.5h-5.7Z"/>
  <polygon class="st0" points="220 41.7 226.9 16.2 219.6 16.2 216 34.3 211.7 16.2 203.4 16.2 199.2 34.4 195.5 16.2 187.8 16.2 194.6 41.7 203.2 41.7 207.4 25.2 211.4 41.7 220 41.7 220 41.7"/>
  <polygon class="st0" points="258.2 41.7 269.6 9.7 261.4 9.7 253.4 33.8 245.4 9.7 237.1 9.7 248.5 41.7 258.2 41.7 258.2 41.7"/>
  <path class="st0" d="M278.3,42c3.1.1,6.1-1.4,7.9-4v3.6h7.8v-25.4h-7.8v3.6c-1.7-2.6-4.7-4.1-7.9-4-6.2,0-11.2,5-11.2,13s5,13.1,11.2,13.1M280.5,22.6h0c3,0,5.5,2.3,5.5,6.3s-2.6,6.3-5.6,6.3-5.6-2.3-5.6-6.3,2.6-6.2,5.6-6.2"/>
  <polygon class="st0" points="298.6 41.7 306.4 41.7 306.4 7.7 298.6 7.7 298.6 41.7 298.6 41.7"/>
  <polygon class="st0" points="311.8 41.7 319.6 41.7 319.6 7.7 311.8 7.7 311.8 41.7 311.8 41.7"/>
  <path class="st0" d="M336,15.9c-7.6,0-12.9,5-12.9,13.1s5.4,13.1,12.9,13.1,10.8-3.8,12.1-8.8h-8.3c-.7,1.6-2.3,2.6-4.1,2.5-2.5,0-4.6-1.5-4.8-4.9h17.6c0-.7.1-1.5.1-2.3,0-7.8-5.1-12.7-12.7-12.7M330.9,26.5c.2-2.5,2.4-4.5,5-4.4,2.6,0,4.8,1.6,4.8,4.4h-9.8Z"/>
  <polygon class="st0" points="369.2 16.2 363.3 32.2 357.5 16.3 348.8 16.3 359.1 40.9 353.3 53.8 361.7 53.8 377.6 16.2 369.2 16.2 369.2 16.2"/>
  <path class="st0" d="M146.8,63.7c3-.1,5.8,1.6,7,4.3h9c-1.9-7.2-7.9-11.7-15.9-11.7s-16.8,7.1-16.8,17.1,7,17,16.8,17,14-4.4,15.9-11.7h-9c-1.2,2.7-4,4.4-7,4.3-5,0-8.4-3.7-8.4-9.6s3.4-9.6,8.4-9.6"/>
  <path class="st0" d="M178.8,64.1c-7.4,0-13.2,5-13.2,13.1s5.7,13.1,13.1,13.1,13.3-5,13.3-13.1-5.8-13.1-13.2-13.1M178.7,83.5h0c-2.8,0-5.2-2-5.2-6.3s2.6-6.3,5.3-6.3,5.3,2.1,5.3,6.3-2.6,6.3-5.4,6.3"/>
  <polygon class="st0" points="195.6 90 203.4 90 203.4 55.9 195.6 55.9 195.6 90 195.6 90"/>
  <polygon class="st0" points="208.5 90 216.3 90 216.3 55.9 208.5 55.9 208.5 90 208.5 90"/>
  <path class="st0" d="M232.7,64.1c-7.6,0-12.9,5-12.9,13.1s5.4,13.1,12.9,13.1,10.8-3.8,12.1-8.8h-8.3c-.7,1.6-2.3,2.6-4.1,2.5-2.5,0-4.6-1.5-4.8-4.9h17.6c0-.7.1-1.5.1-2.3,0-7.7-5.1-12.7-12.7-12.7M227.6,74.7c.2-2.5,2.4-4.5,5-4.4,2.6,0,4.8,1.6,4.8,4.4h-9.8Z"/>
  <path class="st0" d="M267.2,68.1c-1.7-2.6-4.7-4.2-7.9-4-6.3,0-11.3,5-11.3,13s5,13.1,11.3,13.1c3.1.1,6.1-1.4,7.9-4v3.6c0,4.3-2.3,5.8-5.3,5.8s-4.6-1.2-5.1-3.2h-7.7c.7,6.1,5.6,9.9,13.2,9.9s12.7-5.8,12.7-12.6v-25.4h-7.8v3.6h0ZM261.6,83.4c-3,0-5.6-2.3-5.6-6.3s2.7-6.2,5.6-6.2h0c2.9,0,5.5,2.3,5.5,6.3s-2.6,6.3-5.6,6.3"/>
  <g class="st2">
    <path class="st0" d="M290.5,64.1c-7.6,0-12.9,5-12.9,13.1s5.4,13.1,12.9,13.1,10.9-3.8,12.1-8.8h-8.3c-.7,1.6-2.3,2.6-4.1,2.5-2.5,0-4.6-1.5-4.8-4.9h17.6c0-.7.1-1.5.1-2.3,0-7.7-5.1-12.7-12.7-12.7M285.4,74.7c.2-2.5,2.4-4.5,5-4.4,2.6,0,4.8,1.6,4.8,4.4h-9.7Z"/>
    <polygon class="st0" points="0 56.5 0 94.8 54 56.5 0 56.5 0 56.5"/>
    <path class="st0" d="M57.3,93.8l27-18.4s.1,0,.2,0l27,19.5v-38.3h-54.2v37.2h0Z"/>
    <path class="st0" d="M0,53.4h54.2V0H0v53.4H0ZM27.1,5.8c11.6,0,20.9,9.4,20.9,20.9s-9.4,20.9-20.9,20.9S6.2,38.3,6.2,26.7,15.6,5.8,27.1,5.8"/>
    <path class="st0" d="M57.3,53.4h54.2V0h-54.2v53.4h0ZM105.9,26.9c0,0,0,.1-.1.1-9.7,2.5-18.5,10.8-21,20.5,0,0,0,.1-.1.1h-.4c0,0-.1,0-.1-.1-2.5-9.7-11.3-18-21-20.5,0,0-.1,0-.1-.1v-.4c0,0,0-.1.1-.1,9.7-2.5,18.5-10.8,21-20.5,0,0,0-.1.1-.1h.4c0,0,.1,0,.1.1,2.5,9.7,11.3,18,21,20.5,0,0,.1,0,.1.1v.4h0Z"/>
    <polygon class="st0" points="0 97.9 0 110 55.8 132.3 111.6 110 111.6 97.9 0 97.9 0 97.9"/>
  </g>
</svg>